<?xml version="1.0" encoding="iso-8859-1"?>
<!-- Generator: Adobe Illustrator 17.1.0, SVG Export Plug-In . SVG Version: 6.00 Build 0)  -->
<!DOCTYPE svg PUBLIC "-//W3C//DTD SVG 1.1//EN" "http://www.w3.org/Graphics/SVG/1.1/DTD/svg11.dtd">
<svg version="1.1" id="Capa_1" xmlns="http://www.w3.org/2000/svg" xmlns:xlink="http://www.w3.org/1999/xlink" x="0px" y="0px"
	 viewBox="0 0 465.001 465.001" style="enable-background:new 0 0 465.001 465.001;" xml:space="preserve">
<g>
	<path d="M462.118,149.741L301.761,24.418c-1.318-1.031-2.944-1.591-4.618-1.591h-129.27c-0.047,0.001-0.09,0-0.134,0.001
		c-0.008,0-0.013,0-0.02,0c-0.005,0-0.017,0-0.015,0c-1.706,0.034-3.273,0.639-4.518,1.63L2.882,149.741
		c-3.264,2.55-3.842,7.264-1.291,10.527c1.479,1.893,3.686,2.882,5.914,2.882c1.615,0,3.242-0.52,4.613-1.591l22.115-17.284v290.398
		c0,4.142,3.357,7.5,7.5,7.5h60.279c4.143,0,7.5-3.358,7.5-7.5V270.188c0-32.171,26.173-58.345,58.345-58.345
		s58.345,26.173,58.345,58.345v164.485c0,4.142,3.357,7.5,7.5,7.5h60.279h129.285c4.143,0,7.5-3.358,7.5-7.5V185.65
		c0-4.142-3.357-7.5-7.5-7.5s-7.5,3.358-7.5,7.5v241.523H301.482V144.276l22.115,17.284c1.318,1.031,2.944,1.591,4.618,1.591H457.5
		c3.201,0,6.049-2.031,7.091-5.058C465.634,155.066,464.641,151.712,462.118,149.741z M286.482,427.174h-45.279V270.188
		c0-40.442-32.902-73.345-73.345-73.345s-73.345,32.902-73.345,73.345v156.985H49.234V132.553l118.624-92.708l118.624,92.708
		V427.174z M330.798,148.15L189.634,37.827H294.56L435.724,148.15H330.798z"/>
	<path d="M203.702,427.174h-71.689c-4.143,0-7.5,3.358-7.5,7.5s3.357,7.5,7.5,7.5h71.689c4.143,0,7.5-3.358,7.5-7.5
		S207.845,427.174,203.702,427.174z"/>
</g>
<g>
</g>
<g>
</g>
<g>
</g>
<g>
</g>
<g>
</g>
<g>
</g>
<g>
</g>
<g>
</g>
<g>
</g>
<g>
</g>
<g>
</g>
<g>
</g>
<g>
</g>
<g>
</g>
<g>
</g>
</svg>
