<?xml version="1.0" encoding="iso-8859-1"?>
<!-- Generator: Adobe Illustrator 19.0.0, SVG Export Plug-In . SVG Version: 6.00 Build 0)  -->
<svg version="1.1" id="Capa_1" xmlns="http://www.w3.org/2000/svg" xmlns:xlink="http://www.w3.org/1999/xlink" x="0px" y="0px"
	 viewBox="0 0 215.04 215.04" style="enable-background:new 0 0 215.04 215.04;" xml:space="preserve">
<g>
	<g>
		<path d="M73.861,55.997c-1.147-0.956-2.777-1.051-4.031-0.246c-4.318,2.785-9.305,4.256-14.416,4.256
			c-14.711,0-26.68-11.967-26.68-26.679c0-3.473,0.672-6.874,1.997-10.109c0.565-1.379,0.171-2.964-0.976-3.919
			c-1.145-0.952-2.777-1.05-4.031-0.244c-9.636,6.212-15.389,16.741-15.389,28.162c0,18.475,15.031,33.505,33.505,33.505
			c13.648,0,25.815-8.168,30.998-20.809C75.402,58.537,75.008,56.951,73.861,55.997z M43.839,73.899
			c-14.71,0-26.679-11.967-26.679-26.679c0-5.543,1.703-10.822,4.773-15.22c-0.019,0.442-0.027,0.886-0.026,1.331
			c0,18.475,15.032,33.505,33.507,33.505c2.497,0,4.968-0.28,7.375-0.824C57.883,70.975,51.127,73.899,43.839,73.899z"/>
	</g>
</g>
<g>
	<g>
		<path d="M204.425,204.949L111.672,24.042c-0.582-1.138-1.756-1.855-3.036-1.855c-1.28,0-2.452,0.717-3.036,1.855L12.848,204.949
			c-0.544,1.06-0.497,2.323,0.123,3.338c0.62,1.014,1.725,1.633,2.913,1.633h185.503c1.188,0,2.294-0.62,2.915-1.633
			C204.921,207.271,204.967,206.007,204.425,204.949z M21.47,203.093l87.165-170.011l87.165,170.011H21.47z"/>
	</g>
</g>
<g>
	<g>
		<path d="M211.627,203.093H3.413c-1.884,0-3.413,1.529-3.413,3.413s1.529,3.413,3.413,3.413h208.213
			c1.884,0,3.413-1.529,3.413-3.413S213.511,203.093,211.627,203.093z"/>
	</g>
</g>
<g>
	<g>
		<path d="M102.4,131.413H64.853c-1.884,0-3.413,1.529-3.413,3.413v37.547c0,1.884,1.529,3.413,3.413,3.413H102.4
			c1.884,0,3.413-1.529,3.413-3.413v-37.547C105.813,132.943,104.284,131.413,102.4,131.413z M98.987,168.96h-30.72v-30.72h30.72
			V168.96z"/>
	</g>
</g>
<g>
	<g>
		<path d="M183.438,204.216l-64.853-71.68c-0.947-1.046-2.444-1.401-3.758-0.894c-1.318,0.507-2.186,1.773-2.186,3.185v71.68
			c0,1.884,1.529,3.413,3.413,3.413h64.853c1.35,0,2.572-0.795,3.12-2.029C184.573,206.657,184.342,205.216,183.438,204.216z
			 M119.467,203.093v-59.407l53.748,59.407H119.467z"/>
	</g>
</g>
<g>
	<g>
		<path d="M109.227,5.12c-1.884,0-3.413,1.529-3.413,3.413v20.48c0,1.884,1.529,3.413,3.413,3.413s3.413-1.529,3.413-3.413V8.533
			C112.64,6.649,111.111,5.12,109.227,5.12z"/>
	</g>
</g>
<g>
	<g>
		<path d="M111.64,26.6L97.987,12.947c-1.333-1.333-3.494-1.333-4.826,0c-1.333,1.333-1.333,3.494,0,4.826l13.653,13.653
			c0.667,0.667,1.539,1,2.413,1c0.874,0,1.746-0.333,2.413-1C112.973,30.094,112.973,27.933,111.64,26.6z"/>
	</g>
</g>
<g>
	<g>
		<path d="M125.293,12.947c-1.333-1.333-3.494-1.333-4.826,0L106.813,26.6c-1.333,1.333-1.333,3.494,0,4.826
			c0.667,0.667,1.539,1,2.413,1c0.874,0,1.746-0.333,2.413-1l13.653-13.653C126.626,16.44,126.626,14.28,125.293,12.947z"/>
	</g>
</g>
<g>
	<g>
		<path d="M64.853,141.653c-1.884,0-3.413,1.529-3.413,3.413v10.24c0,1.884,1.529,3.413,3.413,3.413s3.413-1.529,3.413-3.413v-10.24
			C68.267,143.183,66.737,141.653,64.853,141.653z"/>
	</g>
</g>
<g>
</g>
<g>
</g>
<g>
</g>
<g>
</g>
<g>
</g>
<g>
</g>
<g>
</g>
<g>
</g>
<g>
</g>
<g>
</g>
<g>
</g>
<g>
</g>
<g>
</g>
<g>
</g>
<g>
</g>
</svg>
