<?xml version="1.0" encoding="iso-8859-1"?>
<!-- Generator: Adobe Illustrator 19.0.0, SVG Export Plug-In . SVG Version: 6.00 Build 0)  -->
<svg version="1.1" id="Layer_1" xmlns="http://www.w3.org/2000/svg" xmlns:xlink="http://www.w3.org/1999/xlink" x="0px" y="0px"
	 viewBox="0 0 512 512" style="enable-background:new 0 0 512 512;" xml:space="preserve">
<g>
	<g>
		<path d="M504.414,193.061L268.625,4.43c-7.382-5.905-17.87-5.905-25.251,0L7.586,193.061c-6.702,5.361-9.287,14.372-6.446,22.471
			c2.84,8.1,10.488,13.521,19.071,13.521h42.667v262.735c0,11.161,9.049,20.21,20.21,20.21h110.034h125.755H428.91
			c11.161,0,20.21-9.049,20.21-20.21V229.053h42.667c8.583,0,16.23-5.42,19.071-13.521
			C513.701,207.433,511.117,198.422,504.414,193.061z M172.913,471.578H103.3v-53.894h69.613V471.578z M172.913,377.263H103.3
			v-53.894h69.613V377.263z M298.668,471.578h-85.334v-148.21h85.334V471.578z M408.701,471.578h-69.613v-53.894h69.613V471.578z
			 M408.701,377.263h-69.613v-53.894h69.613V377.263z M408.701,282.947h-89.823H193.123H103.3v-53.894h305.401V282.947z
			 M428.912,188.632H83.09h-5.261L256.001,46.093l178.172,142.539H428.912z"/>
	</g>
</g>
<g>
</g>
<g>
</g>
<g>
</g>
<g>
</g>
<g>
</g>
<g>
</g>
<g>
</g>
<g>
</g>
<g>
</g>
<g>
</g>
<g>
</g>
<g>
</g>
<g>
</g>
<g>
</g>
<g>
</g>
</svg>
